<?xml version="1.0" encoding="utf-8"?>
<!-- Generator: Adobe Illustrator 19.0.0, SVG Export Plug-In . SVG Version: 6.00 Build 0)  -->
<svg version="1.1" id="Layer_1" xmlns="http://www.w3.org/2000/svg" xmlns:xlink="http://www.w3.org/1999/xlink" x="0px" y="0px"
	 width="15px" height="16px" viewBox="-298 389 15 16" style="enable-background:new -298 389 15 16;" xml:space="preserve">
<style type="text/css">
	.st0{fill:#818182;}
</style>
<path id="our-domain" class="st0" d="M-291,389.9c-3.9,0.1-7.1,3.3-7,7.2c-0.1,3.9,3.1,7.2,7,7.2c3.9-0.1,7.1-3.3,7-7.2
	C-283.9,393.1-287,389.9-291,389.9z M-291.8,393.5h-0.9v0.9h-0.9v0.9h-1.8v1.8h1.8v0.9h0.9v1.8h-0.9v1.8h-0.9v-0.9h-0.9v-3.6h-0.9
	v-2.7h0.9v-0.9h0.9v-0.9h0.9v-0.9h1.8V393.5z M-285.7,399.8h-0.9v0.9h-0.9v-1.8h-1.8V398h-0.9v-1.8h0.9v-0.9h1.8v0.9h1.8
	L-285.7,399.8L-285.7,399.8z M-286.6,395.3v-0.9h-3.5v-0.9h0.9v-1.8h0.9v0.9h0.9v0.9h0.9v0.9h0.9v0.9L-286.6,395.3L-286.6,395.3z"/>
</svg>
