<?xml version="1.0" encoding="utf-8"?>
<!-- Generator: Adobe Illustrator 19.0.0, SVG Export Plug-In . SVG Version: 6.00 Build 0)  -->
<svg version="1.1" id="Layer_1" xmlns="http://www.w3.org/2000/svg" xmlns:xlink="http://www.w3.org/1999/xlink" x="0px" y="0px"
	 width="14px" height="14px" viewBox="-298 390 14 14" style="enable-background:new -298 390 14 14;" xml:space="preserve">
<style type="text/css">
	.st0{clip-path:url(#SVGID_2_);fill:#818182;}
</style>
<g>
	<g>
		<defs>
			<rect id="SVGID_1_" x="-298" y="390" width="14" height="14"/>
		</defs>
		<clipPath id="SVGID_2_">
			<use xlink:href="#SVGID_1_"  style="overflow:visible;"/>
		</clipPath>
		<path class="st0" d="M-291,390c-3.9,0-7,3.1-7,7s3.1,7,7,7s7-3.1,7-7S-287.1,390-291,390 M-288.5,394.4c0.7,0,1.4,0.6,1.4,1.4
			c0,0.7-0.6,1.4-1.4,1.4c-0.7,0-1.4-0.6-1.4-1.4C-289.8,395-289.2,394.4-288.5,394.4 M-292.7,393.3c0.9,0,1.7,0.8,1.7,1.7
			s-0.8,1.6-1.7,1.6c-0.9,0-1.6-0.7-1.6-1.6S-293.6,393.3-292.7,393.3 M-292.7,399.7v2.6c-1.7-0.5-3-1.8-3.6-3.5
			c0.7-0.8,2.6-1.2,3.6-1.2c0.4,0,0.8,0.1,1.3,0.2C-292.5,398.5-292.7,399.3-292.7,399.7 M-291,402.6c-0.2,0-0.4,0-0.6,0v-2.9
			c0-1,2.1-1.5,3.1-1.5c0.7,0,2,0.3,2.7,0.8C-286.6,401.1-288.6,402.6-291,402.6"/>
	</g>
</g>
</svg>
