<?xml version="1.0" encoding="utf-8"?>
<!-- Generator: Adobe Illustrator 19.0.0, SVG Export Plug-In . SVG Version: 6.00 Build 0)  -->
<svg version="1.1" id="Capa_1" xmlns="http://www.w3.org/2000/svg" xmlns:xlink="http://www.w3.org/1999/xlink" x="0px" y="0px"
	 viewBox="200.5 391.3 13 11.4" style="enable-background:new 200.5 391.3 13 11.4;" xml:space="preserve">
<style type="text/css">
	.st0{fill:#FFFFFF;}
</style>
<g>
	<g>
		<g>
			<g id="Refresh">
				<g>
					<path class="st0" d="M206.2,401.1h-0.7c-1.9-0.3-3.4-2-3.4-4c0-0.7,0.2-1.3,0.5-1.9l0.5,0.7c0.4,0.5,1.1,0.4,1.3-0.2l0.4-1.4
						l0.5-2c0.1-0.5-0.2-0.9-0.7-0.9l-1.9,0l-1.5,0c-0.6,0-1,0.7-0.6,1.2l0.9,1.3c-0.7,0.9-1.1,2.1-1.1,3.3c0,2.8,2.1,5.2,4.8,5.6
						c0.1,0,0.1,0,0.2,0v0h0.7c0.4,0,0.8-0.4,0.8-0.8v0C207,401.4,206.6,401.1,206.2,401.1z M212.4,400.2c0.7-0.9,1.1-2.1,1.1-3.3
						c0-2.8-2.1-5.2-4.8-5.6c-0.1,0-0.1,0-0.2,0v0h-0.7c-0.4,0-0.8,0.4-0.8,0.8v0c0,0.4,0.4,0.8,0.8,0.8h0.7c1.9,0.3,3.4,2,3.4,4
						c0,0.7-0.2,1.3-0.5,1.9l-0.5-0.7c-0.4-0.5-1.1-0.4-1.3,0.2l-0.4,1.4l-0.5,2c-0.1,0.5,0.2,0.9,0.7,0.9l1.9,0l1.5,0
						c0.6,0,1-0.7,0.6-1.2L212.4,400.2z"/>
				</g>
			</g>
		</g>
	</g>
</g>
</svg>
