<?xml version="1.0" encoding="utf-8"?>
<!-- Generator: Adobe Illustrator 19.0.0, SVG Export Plug-In . SVG Version: 6.00 Build 0)  -->
<svg version="1.1" id="Layer_1" xmlns="http://www.w3.org/2000/svg" xmlns:xlink="http://www.w3.org/1999/xlink" x="0px" y="0px"
	 width="14px" height="14.4px" viewBox="-298 389.6 14 14.4" style="enable-background:new -298 389.6 14 14.4;"
	 xml:space="preserve">
<style type="text/css">
	.st0{clip-path:url(#SVGID_2_);fill:#818182;}
</style>
<g>
	<g>
		<defs>
			<rect id="SVGID_1_" x="-298.8" y="388.8" width="15.6" height="16"/>
		</defs>
		<clipPath id="SVGID_2_">
			<use xlink:href="#SVGID_1_"  style="overflow:visible;"/>
		</clipPath>
		<path class="st0" d="M-285.6,397.5c0-0.2,0-0.5,0-0.7c0-0.2,0-0.5-0.1-0.7l1.5-1.2c0.2-0.1,0.2-0.3,0.2-0.4l-1.4-2.5
			c-0.1-0.2-0.3-0.2-0.4-0.2l-1.8,0.7c-0.5-0.3-0.9-0.5-1.3-0.7l-0.3-1.9c0-0.2-0.2-0.3-0.4-0.3h-2.8c-0.2,0-0.4,0.1-0.4,0.3
			l-0.3,1.9c-0.4,0.2-0.8,0.4-1.2,0.7l-1.8-0.7c-0.2-0.1-0.4,0-0.4,0.2l-1.4,2.5c-0.1,0.1-0.1,0.3,0,0.4l1.5,1.2
			c0,0.2-0.1,0.5-0.1,0.7c0,0.2,0,0.5,0.1,0.7l-1.5,1.2c-0.1,0.1-0.1,0.3-0.1,0.4l1.5,2.5c0.1,0.2,0.3,0.2,0.4,0.2l1.8-0.7
			c0.4,0.3,0.8,0.5,1.2,0.7l0.3,1.9c0,0.2,0.2,0.3,0.4,0.3h2.9c0.2,0,0.3-0.1,0.4-0.3l0.3-1.9c0.4-0.2,0.8-0.4,1.2-0.7l1.8,0.7
			c0.2,0.1,0.4,0,0.4-0.2l1.4-2.5c0-0.1,0-0.3-0.1-0.4L-285.6,397.5z M-291,399.5c-1.5,0-2.7-1.2-2.7-2.7s1.2-2.7,2.7-2.7
			s2.7,1.2,2.7,2.7S-289.5,399.5-291,399.5"/>
	</g>
</g>
</svg>
