<?xml version="1.0" encoding="utf-8"?>
<!-- Generator: Adobe Illustrator 19.0.0, SVG Export Plug-In . SVG Version: 6.00 Build 0)  -->
<svg version="1.1" id="Layer_1" xmlns="http://www.w3.org/2000/svg" xmlns:xlink="http://www.w3.org/1999/xlink" x="0px" y="0px"
	 width="14px" height="8.9px" viewBox="0 0 14 8.9" style="enable-background:new 0 0 14 8.9;" xml:space="preserve">
<style type="text/css">
	.st0{clip-path:url(#SVGID_2_);fill:#818182;}
</style>
<g>
	<defs>
		<rect id="SVGID_1_" width="14" height="8.9"/>
	</defs>
	<clipPath id="SVGID_2_">
		<use xlink:href="#SVGID_1_"  style="overflow:visible;"/>
	</clipPath>
	<path class="st0" d="M9.5,3.8c1.1,0,1.9-0.9,1.9-1.9S10.6,0,9.5,0C8.5,0,7.6,0.9,7.6,1.9S8.5,3.8,9.5,3.8 M4.5,3.8
		c1.1,0,1.9-0.9,1.9-1.9S5.5,0,4.5,0S2.5,0.9,2.5,1.9S3.4,3.8,4.5,3.8 M4.5,5.1C3,5.1,0,5.8,0,7.3v1.6h8.9V7.3
		C8.9,5.8,5.9,5.1,4.5,5.1 M9.5,5.1c-0.2,0-0.4,0-0.6,0c0.7,0.5,1.3,1.3,1.3,2.2v1.6H14V7.3C14,5.8,11,5.1,9.5,5.1"/>
</g>
</svg>
